# xmcd
#
# Track frame offsets: 
#        150
#        15897
#        42292
#        54650
#        74987
#        87685
#        106055
#        123695
#
# Disc length: 1929 seconds
#
# Revision: 0
# Processed by: cddbd v1.5.2PL0 Copyright (c) Steve Scherf et al.
# Submitted via: ExactAudioCopy v0.95b4
#
DISCID=6f078708
DTITLE=Russel, Calvin - Soldier
DYEAR=1900
DGENRE=Blues
TTITLE0=Soldier
TTITLE1=Stranger
TTITLE2=Characters
TTITLE3=I dreamed i saw
TTITLE4=Rats and roaches
TTITLE5=Down in Texas
TTITLE6=Shackles and chains
TTITLE7=This could be the day
EXTD=
EXTT0=
EXTT1=
EXTT2=
EXTT3=
EXTT4=
EXTT5=
EXTT6=
EXTT7=
PLAYORDER=
